<svg id="Capa_1" data-name="Capa 1" xmlns="http://www.w3.org/2000/svg" xmlns:xlink="http://www.w3.org/1999/xlink" viewBox="0 0 644.26 126.89"><defs><style>.cls-1{fill:#1ed760;}.cls-2{fill:url(#Degradado_sin_nombre_252);}.cls-3{fill:url(#Degradado_sin_nombre_252-2);}.cls-4{fill:url(#Degradado_sin_nombre_252-3);}</style><linearGradient id="Degradado_sin_nombre_252" x1="15.17" y1="113.62" x2="15.17" y2="53.04" gradientUnits="userSpaceOnUse"><stop offset="0" stop-color="#fff" stop-opacity="0"/><stop offset="0.03" stop-color="#e7fbee" stop-opacity="0.11"/><stop offset="0.08" stop-color="#b8f2cd" stop-opacity="0.32"/><stop offset="0.14" stop-color="#8febb0" stop-opacity="0.5"/><stop offset="0.21" stop-color="#6ce597" stop-opacity="0.65"/><stop offset="0.28" stop-color="#4fe083" stop-opacity="0.78"/><stop offset="0.35" stop-color="#39dc73" stop-opacity="0.88"/><stop offset="0.43" stop-color="#2ad968" stop-opacity="0.95"/><stop offset="0.53" stop-color="#21d762" stop-opacity="0.99"/><stop offset="0.69" stop-color="#1ed760"/><stop offset="1" stop-color="#23b763"/></linearGradient><linearGradient id="Degradado_sin_nombre_252-2" x1="63.84" y1="113.62" x2="63.84" y2="33.82" xlink:href="#Degradado_sin_nombre_252"/><linearGradient id="Degradado_sin_nombre_252-3" x1="112.51" y1="113.62" x2="112.51" y2="15.17" xlink:href="#Degradado_sin_nombre_252"/></defs><path class="cls-1" d="M277.81,117l-6.49-15.91a.82.82,0,0,0-.77-.52H239.7a.82.82,0,0,0-.77.52L232.44,117a.82.82,0,0,1-.77.52H216.54a.83.83,0,0,1-.77-1.16l31.69-74.47a.83.83,0,0,1,.77-.51h14.23a.84.84,0,0,1,.77.51l31.68,74.47a.83.83,0,0,1-.76,1.16H278.58A.82.82,0,0,1,277.81,117ZM254.35,63.25l-8.8,21.48a.84.84,0,0,0,.78,1.15h17.59a.84.84,0,0,0,.78-1.15l-8.8-21.48A.84.84,0,0,0,254.35,63.25Z" transform="translate(-39.64 -7.75)"/><path class="cls-1" d="M342.77,117.52a.81.81,0,0,1-.81-.81V85.31c0-3.88-.87-6.8-2.59-8.78a9.27,9.27,0,0,0-7.35-3,9.74,9.74,0,0,0-7.5,3c-1.84,2-2.76,4.9-2.76,8.78v31.4a.81.81,0,0,1-.81.81H306.16a.81.81,0,0,1-.81-.81V60.45a.81.81,0,0,1,.81-.81H321a.81.81,0,0,1,.81.81v5.19a.81.81,0,0,0,1.42.52c.53-.61,1.08-1.2,1.66-1.78a20.91,20.91,0,0,1,3.73-3,18,18,0,0,1,4.53-2.07,19.1,19.1,0,0,1,5.62-.76q9.39,0,14.52,5.72t5.13,15.77v36.66a.81.81,0,0,1-.81.81Z" transform="translate(-39.64 -7.75)"/><path class="cls-1" d="M406.7,116.72v-3.5a.8.8,0,0,0-1.35-.59,23.07,23.07,0,0,1-5.88,4,23.86,23.86,0,0,1-10.26,2,25.58,25.58,0,0,1-7.73-1.13,18.12,18.12,0,0,1-6.31-3.4,16.24,16.24,0,0,1-4.27-5.57,17.42,17.42,0,0,1-1.57-7.61v-.21a18.18,18.18,0,0,1,1.73-8.21,15.81,15.81,0,0,1,4.81-5.73,21.7,21.7,0,0,1,7.34-3.4,37.1,37.1,0,0,1,9.45-1.13,39.74,39.74,0,0,1,7.72.65,49.46,49.46,0,0,1,6.43,1.72v-1q0-5.17-3.13-7.88T394.39,73a38.56,38.56,0,0,0-8.37.81,53.9,53.9,0,0,0-6.83,2,.81.81,0,0,1-1-.5l-3.61-11a.8.8,0,0,1,.45-1,65.09,65.09,0,0,1,9.25-3.06A52.53,52.53,0,0,1,396.77,59q13.5,0,19.65,6.59t6.16,18.36v32.78a.8.8,0,0,1-.81.8H407.51A.8.8,0,0,1,406.7,116.72Zm.16-19.61a4.18,4.18,0,0,0-3-4c-.59-.17-1.2-.33-1.83-.47a25.69,25.69,0,0,0-5.67-.59q-5.29,0-8.32,2a6.75,6.75,0,0,0-3,5.94v.21a6.06,6.06,0,0,0,2.48,5.19,10.67,10.67,0,0,0,6.48,1.83q5.83,0,9.34-2.8a9,9,0,0,0,3.51-7.35Z" transform="translate(-39.64 -7.75)"/><path class="cls-1" d="M437.32,116.62v-77a.9.9,0,0,1,.9-.91h14.61a.9.9,0,0,1,.9.91v77a.9.9,0,0,1-.9.9H438.22A.9.9,0,0,1,437.32,116.62Z" transform="translate(-39.64 -7.75)"/><path class="cls-1" d="M499.05,118.22a44.33,44.33,0,0,1-3.46,7.51,20.48,20.48,0,0,1-4,5,13.55,13.55,0,0,1-5,2.81,22.26,22.26,0,0,1-6.48.86,26.82,26.82,0,0,1-8-1.08,31.15,31.15,0,0,1-5.94-2.54.81.81,0,0,1-.33-1.05l4.83-10.42a.8.8,0,0,1,1.11-.36,19,19,0,0,0,2.76,1.2,10.93,10.93,0,0,0,3.51.65,6.17,6.17,0,0,0,3.4-.81,7,7,0,0,0,2.15-2.64.81.81,0,0,0,0-.68c-4.46-11.43-10.66-28.22-10.89-28.86v0q-5.43-14.69-10-28.19h15.54a1,1,0,0,1,.51.19,1.09,1.09,0,0,1,.35.53c.16.49,5.05,15.34,11.74,35.69a.79.79,0,0,0,.76.6c.38,0,.67-.45.76-.6.76-1.19,9.28-26,12.63-35.72a.8.8,0,0,1,.3-.52.71.71,0,0,1,.39-.14l14.91,0a.47.47,0,0,1,.28.21.46.46,0,0,1,0,.35Q509.94,89.2,499.05,118.22Z" transform="translate(-39.64 -7.75)"/><path class="cls-1" d="M552.76,117.58a25.9,25.9,0,0,1-7.24.91,26.89,26.89,0,0,1-6.85-.8,12.19,12.19,0,0,1-5.29-2.87,13.7,13.7,0,0,1-3.46-5.34,24,24,0,0,1-1.24-8.37V74.49a.82.82,0,0,0-.82-.81l-12.05-.13a1.26,1.26,0,0,1,.06-.6,1.24,1.24,0,0,1,.34-.47l3.63-11.76a.78.78,0,0,1,0-.69.76.76,0,0,1,.59-.41l7.46,0a.82.82,0,0,0,.82-.82V45.66a.82.82,0,0,1,.82-.82h14.77a.82.82,0,0,1,.82.82V58.82a.82.82,0,0,0,.82.82h12a.81.81,0,0,1,.82.81V72.86a.82.82,0,0,1-.82.82h-12a.82.82,0,0,0-.82.81V98.41q0,5.61,5.3,5.61a16.77,16.77,0,0,0,7-1.48.81.81,0,0,1,1.13.74v11.38a.83.83,0,0,1-.41.73A26.29,26.29,0,0,1,552.76,117.58Z" transform="translate(-39.64 -7.75)"/><path class="cls-1" d="M582.69,58.65h-13a1,1,0,0,0-1,1v56.48a1,1,0,0,0,1,1h13a1,1,0,0,0,.95-1V59.61a.94.94,0,0,0-.95-1Z" transform="translate(-39.64 -7.75)"/><path class="cls-1" d="M576.29,32.94a9.29,9.29,0,1,0,9.28,9.28A9.28,9.28,0,0,0,576.29,32.94Z" transform="translate(-39.64 -7.75)"/><path class="cls-1" d="M626.81,51.64a18.39,18.39,0,0,0-3.89-.38q-5.94,0-5.94,6.27v1.41a.83.83,0,0,0,.26.6,1,1,0,0,0,.6.25c.48.05,7.83.07,17.86.05q2.31,6.66,4.61,13.33l-22.25,0a.79.79,0,0,0-.7.27.78.78,0,0,0-.16.59v42.12a.85.85,0,0,1-.86.86h-14.7a.86.86,0,0,1-.86-.86V74.05a.85.85,0,0,0-.85-.86h-5.09a.86.86,0,0,1-.86-.86V60.55a.85.85,0,0,1,.86-.86h5.09a.86.86,0,0,0,.85-.86V56q0-9.6,4.59-14.09t13.34-4.48a43.36,43.36,0,0,1,6.64.43,31.13,31.13,0,0,1,4.43,1,.86.86,0,0,1,.6.82V51.48a.86.86,0,0,1-1.13.81C628.42,52,627.61,51.82,626.81,51.64Zm35.25,66.8a45,45,0,0,1-3.45,7.5,21,21,0,0,1-4.05,5,13.6,13.6,0,0,1-5,2.8,22,22,0,0,1-6.49.87,26.86,26.86,0,0,1-8-1.08,31.84,31.84,0,0,1-5.94-2.55.79.79,0,0,1-.33-1l4.83-10.42a.8.8,0,0,1,1.12-.36,18.39,18.39,0,0,0,2.75,1.19A10.93,10.93,0,0,0,641,121a6.15,6.15,0,0,0,3.4-.81,7,7,0,0,0,2.15-2.64.79.79,0,0,0,0-.67c-4.46-11.43-10.65-28.23-10.89-28.86v0q-5.43-14.69-10-28.19h15.53a1,1,0,0,1,.51.19,1,1,0,0,1,.35.53l11.75,35.69a.77.77,0,0,0,.75.6c.38,0,.67-.45.77-.61.75-1.19,9.28-26,12.62-35.72a.81.81,0,0,1,.3-.51.8.8,0,0,1,.39-.15l14.91,0a.37.37,0,0,1,.28.2.4.4,0,0,1,0,.35Z" transform="translate(-39.64 -7.75)"/><rect class="cls-2" y="53.04" width="30.34" height="60.58"/><circle class="cls-1" cx="15.17" cy="53.04" r="15.17"/><rect class="cls-3" x="48.67" y="33.82" width="30.34" height="79.8"/><circle class="cls-1" cx="63.84" cy="33.82" r="15.17"/><rect class="cls-4" x="97.34" y="15.17" width="30.34" height="98.45"/><circle class="cls-1" cx="112.51" cy="15.17" r="15.17"/></svg>