<svg id="Capa_1" data-name="Capa 1" xmlns="http://www.w3.org/2000/svg" viewBox="0 0 523.92 167.48"><defs><style>.cls-1{fill:#1ed760;}.cls-2{fill:#fff;}</style></defs><path class="cls-1" d="M84,.28A83.74,83.74,0,1,0,167.74,84,83.75,83.75,0,0,0,84,.28Zm144.09,77.3c-14.46-3.44-17-5.87-17-11,0-4.8,4.52-8,11.25-8,6.52,0,13,2.46,19.76,7.51a.94.94,0,0,0,1.34-.21l7.06-10a1,1,0,0,0-.18-1.29A42.74,42.74,0,0,0,222.52,45C206.91,45,196,54.4,196,67.8c0,14.38,9.41,19.47,25.67,23.4,13.83,3.18,16.17,5.86,16.17,10.63,0,5.29-4.72,8.58-12.32,8.58-8.44,0-15.33-2.85-23-9.51a1,1,0,0,0-.69-.23.94.94,0,0,0-.65.33l-7.92,9.42a1,1,0,0,0,.09,1.32A47.19,47.19,0,0,0,225.2,124c16.82,0,27.69-9.19,27.69-23.42,0-12-7.16-18.66-24.77-22.94ZM384.45,64.51H370.2V49.94a1,1,0,0,0-.94-.95H356.31a1,1,0,0,0-.95.95V64.51h-6.22a.94.94,0,0,0-.94.95V76.58a.94.94,0,0,0,.94,1h6.22v28.8c0,11.63,5.79,17.53,17.22,17.53a23.59,23.59,0,0,0,12.12-3,.93.93,0,0,0,.48-.82v-10.6a.94.94,0,0,0-.45-.8.92.92,0,0,0-.92,0,16.35,16.35,0,0,1-7.6,1.83c-4.15,0-6-1.89-6-6.11V77.54h14.25a1,1,0,0,0,.94-1V65.46a.92.92,0,0,0-.93-.95Zm51.22,0V62.78c0-5.27,2-7.61,6.54-7.61a21.87,21.87,0,0,1,7.3,1.34.92.92,0,0,0,.85-.13,1,1,0,0,0,.39-.77V44.7a.93.93,0,0,0-.67-.91,35.54,35.54,0,0,0-10.76-1.55C427.37,42.24,421,49,421,61.71v2.74h-6.22a1,1,0,0,0-.95,1V76.58a1,1,0,0,0,.95,1H421v44.41a1,1,0,0,0,.95,1h12.94a.94.94,0,0,0,.95-1V77.53H448l18.52,44.41c-2.1,4.66-4.17,5.59-7,5.59a14.86,14.86,0,0,1-7.14-2,1,1,0,0,0-.75-.07.94.94,0,0,0-.56.51l-4.39,9.63a1,1,0,0,0,.41,1.23,27.25,27.25,0,0,0,13.82,3.54c9.56,0,14.85-4.46,19.5-16.44l22.46-58a.92.92,0,0,0-.1-.88.91.91,0,0,0-.77-.41H488.5a.94.94,0,0,0-.9.63l-13.81,39.44L458.67,65.18a.94.94,0,0,0-.88-.61H435.67Zm-28.78,0H393.94a1,1,0,0,0-.95.95v56.48a1,1,0,0,0,.95,1h12.95a1,1,0,0,0,.95-1V65.46a1,1,0,0,0-.95-.95Zm-6.4-25.72a9.29,9.29,0,1,0,9.28,9.28A9.28,9.28,0,0,0,400.49,38.79ZM515,82.29a9.14,9.14,0,1,1,9.16-9.17A9.08,9.08,0,0,1,515,82.29Zm0-17.37a8.23,8.23,0,1,0,8.15,8.2A8.15,8.15,0,0,0,515.06,64.92Zm2,9.14,2.58,3.61h-2.18l-2.32-3.31h-2v3.31h-1.82V68.1h4.26c2.23,0,3.69,1.14,3.69,3.05a2.84,2.84,0,0,1-2.21,2.91Zm-1.54-4.32h-2.37v3h2.37c1.18,0,1.89-.58,1.89-1.51S516.72,69.74,515.54,69.74Zm-229-5.23H272.32V49.94a1,1,0,0,0-.94-.95H258.43a1,1,0,0,0-.95.95V64.51h-6.22a.94.94,0,0,0-.94.95V76.58a.94.94,0,0,0,.94,1h6.22v28.8c0,11.63,5.79,17.53,17.22,17.53a23.59,23.59,0,0,0,12.12-3,.93.93,0,0,0,.48-.82v-10.6a.94.94,0,0,0-.45-.8.92.92,0,0,0-.92,0,16.35,16.35,0,0,1-7.6,1.83c-4.15,0-6-1.89-6-6.11V77.54h14.25a1,1,0,0,0,.94-1V65.46a.92.92,0,0,0-.93-.95Z" transform="translate(-0.25 -0.28)"/><path class="cls-1" d="M329.3,121h0a1.85,1.85,0,0,0-3-1.49,22.83,22.83,0,0,1-4.07,2.46,23.1,23.1,0,0,1-10,2,24.74,24.74,0,0,1-7.5-1.11,17.52,17.52,0,0,1-6.15-3.3,15.73,15.73,0,0,1-4.14-5.41,17,17,0,0,1-1.53-7.4v-.21a17.66,17.66,0,0,1,1.68-8A15.31,15.31,0,0,1,299.33,93a21,21,0,0,1,7.13-3.31,36,36,0,0,1,9.19-1.1,39.38,39.38,0,0,1,7.51.63,47.17,47.17,0,0,1,6.25,1.68v-.94q0-5-3.05-7.67t-9-2.62a37.76,37.76,0,0,0-8.13.78A54.34,54.34,0,0,0,303.56,82a1.86,1.86,0,0,1-2.37-1.18l-2.85-8.71a1.86,1.86,0,0,1,1.06-2.31,62.64,62.64,0,0,1,8.06-2.59A50.88,50.88,0,0,1,319.64,66q13.13,0,19.11,6.4t6,17.85V121a1.87,1.87,0,0,1-1.87,1.87h-11.7A1.87,1.87,0,0,1,329.3,121Zm.32-19.56a1.89,1.89,0,0,0-1.24-1.76,27.07,27.07,0,0,0-3.43-1,25.55,25.55,0,0,0-5.52-.57q-5.15,0-8.08,2a6.56,6.56,0,0,0-2.94,5.78v.21a5.9,5.9,0,0,0,2.41,5,10.34,10.34,0,0,0,6.3,1.78q5.67,0,9.09-2.73a8.72,8.72,0,0,0,3.41-7.14Z" transform="translate(-0.25 -0.28)"/><path class="cls-2" d="M60.91,135.43a7.5,7.5,0,0,1-7.5-7.5V40.07a7.5,7.5,0,1,1,15,0v87.86A7.5,7.5,0,0,1,60.91,135.43Z" transform="translate(-0.25 -0.28)"/><path class="cls-2" d="M84,135.43c-4.14,0-7.5-2.27-7.5-5.06V71c0-2.8,3.36-5.06,7.5-5.06s7.5,2.26,7.5,5.06v59.32C91.51,133.16,88.16,135.43,84,135.43Z" transform="translate(-0.25 -0.28)"/><path class="cls-2" d="M107.08,135.43c-4.14,0-7.5-1.6-7.5-3.57V90c0-2,3.36-3.58,7.5-3.58s7.5,1.6,7.5,3.58v41.86C114.58,133.83,111.23,135.43,107.08,135.43Z" transform="translate(-0.25 -0.28)"/></svg>