<svg id="Capa_1" data-name="Capa 1" xmlns="http://www.w3.org/2000/svg" xmlns:xlink="http://www.w3.org/1999/xlink" viewBox="0 0 558.02 196.17"><defs><style>.cls-1{fill:#1ed760;}.cls-2{fill:url(#Degradado_sin_nombre_392);}.cls-3{fill:#fff;}.cls-4{fill:url(#Degradado_sin_nombre_392-2);}.cls-5{fill:url(#Degradado_sin_nombre_392-3);}</style><linearGradient id="Degradado_sin_nombre_392" x1="55.42" y1="154.11" x2="55.42" y2="93.54" gradientUnits="userSpaceOnUse"><stop offset="0" stop-color="#fff" stop-opacity="0"/><stop offset="0.04" stop-color="#fff" stop-opacity="0.15"/><stop offset="0.08" stop-color="#fff" stop-opacity="0.32"/><stop offset="0.14" stop-color="#fff" stop-opacity="0.48"/><stop offset="0.19" stop-color="#fff" stop-opacity="0.61"/><stop offset="0.25" stop-color="#fff" stop-opacity="0.72"/><stop offset="0.31" stop-color="#fff" stop-opacity="0.8"/><stop offset="0.38" stop-color="#fff" stop-opacity="0.86"/><stop offset="0.47" stop-color="#fff" stop-opacity="0.89"/><stop offset="0.6" stop-color="#fff" stop-opacity="0.9"/><stop offset="1" stop-color="#dedede"/></linearGradient><linearGradient id="Degradado_sin_nombre_392-2" x1="140.76" y1="154.19" x2="140.76" y2="74.39" xlink:href="#Degradado_sin_nombre_392"/><linearGradient id="Degradado_sin_nombre_392-3" x1="98.09" y1="155.15" x2="98.09" y2="56.7" xlink:href="#Degradado_sin_nombre_392"/></defs><path class="cls-1" d="M274.11,131.42a20.41,20.41,0,0,1-5.69,7.35,25.51,25.51,0,0,1-8.7,4.53,38,38,0,0,1-11.22,1.57,50,50,0,0,1-16.95-3,44.57,44.57,0,0,1-14.28-8.38,1.17,1.17,0,0,1-.13-1.61l8.4-10.06a1.16,1.16,0,0,1,1.59-.16,48.55,48.55,0,0,0,9.76,6,28.58,28.58,0,0,0,11.94,2.48q5.17,0,8-1.89a6,6,0,0,0,2.86-5.24v-.21a6.54,6.54,0,0,0-.59-2.87,6.09,6.09,0,0,0-2.28-2.32,23.66,23.66,0,0,0-4.65-2.16c-2-.72-4.57-1.47-7.74-2.27a93.28,93.28,0,0,1-10.4-3.13,29.32,29.32,0,0,1-7.91-4.26,17.28,17.28,0,0,1-5-6.32,22,22,0,0,1-1.79-9.4V89.9a22.08,22.08,0,0,1,1.93-9.35,21.41,21.41,0,0,1,5.42-7.18A24.45,24.45,0,0,1,235,68.73a33.5,33.5,0,0,1,10.67-1.62A45.41,45.41,0,0,1,261,69.59a44.36,44.36,0,0,1,11.93,6.46,1.16,1.16,0,0,1,.25,1.57l-7.39,10.7a1.14,1.14,0,0,1-1.57.3,53.71,53.71,0,0,0-9-4.83,25.42,25.42,0,0,0-9.72-2q-4.86,0-7.29,1.89a5.73,5.73,0,0,0-2.43,4.69v.22a6.82,6.82,0,0,0,.7,3.19A6.39,6.39,0,0,0,239,94.22a23.86,23.86,0,0,0,5,2c2.13.65,4.82,1.4,8.07,2.27a77,77,0,0,1,10.23,3.4,28.47,28.47,0,0,1,7.58,4.53,17.42,17.42,0,0,1,4.66,6.21,21.07,21.07,0,0,1,1.57,8.54v.21A23.34,23.34,0,0,1,274.11,131.42Z" transform="translate(-2.09 -1.84)"/><path class="cls-1" d="M315.68,143.84a25.88,25.88,0,0,1-7.24.92,27,27,0,0,1-6.86-.81,12.23,12.23,0,0,1-5.29-2.86,13.73,13.73,0,0,1-3.45-5.35,23.9,23.9,0,0,1-1.25-8.37V100.93a1,1,0,0,0-1-1h-4.94a1,1,0,0,1-1-1V86.89a1,1,0,0,1,1-1h4.94a1,1,0,0,0,1-1V72.09a1,1,0,0,1,1-1H307a1,1,0,0,1,1,1V84.91a1,1,0,0,0,1,1h11.63a1,1,0,0,1,1,1V99a1,1,0,0,1-1,1H309a1,1,0,0,0-1,1v23.74q0,5.62,5.29,5.62a16.75,16.75,0,0,0,6.73-1.38,1,1,0,0,1,1.37.9v11a1,1,0,0,1-.5.87A25.85,25.85,0,0,1,315.68,143.84Z" transform="translate(-2.09 -1.84)"/><path class="cls-1" d="M367.63,141.87h0a1.92,1.92,0,0,0-3.06-1.54,23.4,23.4,0,0,1-4.18,2.54,23.85,23.85,0,0,1-10.26,2,25.51,25.51,0,0,1-7.72-1.14,18.09,18.09,0,0,1-6.32-3.4,16.33,16.33,0,0,1-4.27-5.56,17.59,17.59,0,0,1-1.56-7.61v-.22a18.08,18.08,0,0,1,1.73-8.21,15.75,15.75,0,0,1,4.8-5.72,21.48,21.48,0,0,1,7.35-3.4,36.53,36.53,0,0,1,9.45-1.14,40.61,40.61,0,0,1,7.72.65,48.21,48.21,0,0,1,6.42,1.73v-1q0-5.19-3.13-7.89c-2.09-1.8-5.18-2.7-9.29-2.7a38.62,38.62,0,0,0-8.37.81,53.22,53.22,0,0,0-5.79,1.67,1.91,1.91,0,0,1-2.43-1.22l-2.94-9a1.93,1.93,0,0,1,1.09-2.38,64.14,64.14,0,0,1,8.29-2.66,52,52,0,0,1,12.53-1.3q13.5,0,19.66,6.59t6.15,18.36v31.67a1.92,1.92,0,0,1-1.92,1.92h-12A1.91,1.91,0,0,1,367.63,141.87Zm.32-20.12a1.92,1.92,0,0,0-1.27-1.81,26.73,26.73,0,0,0-3.54-1,26.17,26.17,0,0,0-5.67-.59c-3.52,0-6.3.69-8.31,2a6.74,6.74,0,0,0-3,5.94v.22a6.05,6.05,0,0,0,2.49,5.18,10.57,10.57,0,0,0,6.48,1.84q5.83,0,9.34-2.81a9,9,0,0,0,3.51-7.34Z" transform="translate(-2.09 -1.84)"/><path class="cls-1" d="M424.43,143.84a25.86,25.86,0,0,1-7.23.92,27,27,0,0,1-6.86-.81,12.17,12.17,0,0,1-5.29-2.86,13.74,13.74,0,0,1-3.46-5.35,23.92,23.92,0,0,1-1.24-8.37V100.89a1,1,0,0,0-1-1h-5a1,1,0,0,1-.95-1V86.85a1,1,0,0,1,.95-.95h5a1,1,0,0,0,1-1V72.06a1,1,0,0,1,.95-1h14.51a1,1,0,0,1,1,1V85a1,1,0,0,0,1,1h11.7a1,1,0,0,1,.95.95V99a1,1,0,0,1-.95,1h-11.7a1,1,0,0,0-1,1v23.78q0,5.62,5.29,5.62a16.79,16.79,0,0,0,6.77-1.4.94.94,0,0,1,1.33.86v11.1a1,1,0,0,1-.49.84A25.58,25.58,0,0,1,424.43,143.84Z" transform="translate(-2.09 -1.84)"/><path class="cls-1" d="M458.91,85.41H446a1,1,0,0,0-.95,1v56.48a1,1,0,0,0,.95.95h13a.94.94,0,0,0,.95-.95V86.36a1,1,0,0,0-.95-1Z" transform="translate(-2.09 -1.84)"/><path class="cls-1" d="M454.09,59.82a9.29,9.29,0,1,0,7.58,7.58A9.3,9.3,0,0,0,454.09,59.82Z" transform="translate(-2.09 -1.84)"/><path class="cls-1" d="M503,78.4a18.39,18.39,0,0,0-3.89-.38q-5.94,0-5.94,6.26v1.41a.89.89,0,0,0,.25.61,1.05,1.05,0,0,0,.61.25c.48,0,7.82.06,17.85,0l4.62,13.33-22.25,0a.86.86,0,0,0-.7.27.78.78,0,0,0-.16.59v42.13a.85.85,0,0,1-.86.86h-14.7a.86.86,0,0,1-.86-.86V100.8a.86.86,0,0,0-.86-.86h-5.09a.86.86,0,0,1-.86-.86V87.3a.86.86,0,0,1,.86-.86h5.09a.86.86,0,0,0,.86-.86V82.77q0-9.61,4.59-14.09t13.34-4.49a44.67,44.67,0,0,1,6.64.43,30.82,30.82,0,0,1,4.43,1,.85.85,0,0,1,.59.83V78.23a.86.86,0,0,1-1.11.82C504.65,78.79,503.84,78.57,503,78.4Zm35.25,66.79a44.7,44.7,0,0,1-3.46,7.51,20.72,20.72,0,0,1-4.05,5,13.63,13.63,0,0,1-5,2.81,21.92,21.92,0,0,1-6.48.86,26.82,26.82,0,0,1-8-1.08,31.84,31.84,0,0,1-5.94-2.55.79.79,0,0,1-.33-1l4.83-10.42a.81.81,0,0,1,1.12-.36,18.51,18.51,0,0,0,2.76,1.19,10.93,10.93,0,0,0,3.51.65,6.17,6.17,0,0,0,3.4-.81,7,7,0,0,0,2.15-2.64.85.85,0,0,0,0-.68c-4.47-11.42-10.66-28.21-10.9-28.85v0q-5.45-14.69-10-28.19h15.54a1,1,0,0,1,.51.19,1.13,1.13,0,0,1,.35.53L530.05,123a.78.78,0,0,0,.75.6c.38,0,.67-.45.77-.61.75-1.19,9.28-26,12.62-35.72a.81.81,0,0,1,.3-.51.8.8,0,0,1,.39-.15l14.91,0a.37.37,0,0,1,.28.2.46.46,0,0,1,0,.35Q549.18,116.17,538.28,145.19Z" transform="translate(-2.09 -1.84)"/><circle class="cls-1" cx="98.09" cy="98.09" r="98.09"/><rect class="cls-2" x="40.25" y="93.54" width="30.34" height="60.58"/><circle class="cls-3" cx="55.42" cy="93.54" r="15.17"/><rect class="cls-4" x="125.59" y="74.39" width="30.34" height="79.8"/><circle class="cls-3" cx="140.76" cy="74.39" r="15.17"/><rect class="cls-5" x="82.92" y="56.7" width="30.34" height="98.45"/><circle class="cls-3" cx="98.09" cy="56.7" r="15.17"/></svg>