<svg id="Capa_1" data-name="Capa 1" xmlns="http://www.w3.org/2000/svg" xmlns:xlink="http://www.w3.org/1999/xlink" viewBox="0 0 713.23 125.86"><defs><style>.cls-1{fill:#1ed760;}.cls-2{fill:url(#Degradado_sin_nombre_252);}.cls-3{fill:url(#Degradado_sin_nombre_252-2);}.cls-4{fill:url(#Degradado_sin_nombre_252-3);}</style><linearGradient id="Degradado_sin_nombre_252" x1="15.17" y1="113.62" x2="15.17" y2="53.04" gradientUnits="userSpaceOnUse"><stop offset="0" stop-color="#fff" stop-opacity="0"/><stop offset="0.03" stop-color="#e7fbee" stop-opacity="0.11"/><stop offset="0.08" stop-color="#b8f2cd" stop-opacity="0.32"/><stop offset="0.14" stop-color="#8febb0" stop-opacity="0.5"/><stop offset="0.21" stop-color="#6ce597" stop-opacity="0.65"/><stop offset="0.28" stop-color="#4fe083" stop-opacity="0.78"/><stop offset="0.35" stop-color="#39dc73" stop-opacity="0.88"/><stop offset="0.43" stop-color="#2ad968" stop-opacity="0.95"/><stop offset="0.53" stop-color="#21d762" stop-opacity="0.99"/><stop offset="0.69" stop-color="#1ed760"/><stop offset="1" stop-color="#23b763"/></linearGradient><linearGradient id="Degradado_sin_nombre_252-2" x1="63.84" y1="113.62" x2="63.84" y2="33.82" xlink:href="#Degradado_sin_nombre_252"/><linearGradient id="Degradado_sin_nombre_252-3" x1="112.51" y1="113.62" x2="112.51" y2="15.17" xlink:href="#Degradado_sin_nombre_252"/></defs><path class="cls-1" d="M271.59,104.24a20.5,20.5,0,0,1-5.68,7.35,25.65,25.65,0,0,1-8.71,4.53A37.91,37.91,0,0,1,246,117.69a50,50,0,0,1-17-3,44.64,44.64,0,0,1-13.86-8,1.71,1.71,0,0,1-.19-2.39l7.69-9.21a1.72,1.72,0,0,1,2.37-.25,48.67,48.67,0,0,0,9.34,5.67A28.5,28.5,0,0,0,246.31,103c3.45,0,6.14-.63,8.05-1.89a6,6,0,0,0,2.86-5.24v-.21a6.55,6.55,0,0,0-.6-2.87,6.06,6.06,0,0,0-2.27-2.32,23.79,23.79,0,0,0-4.66-2.16c-2-.72-4.57-1.47-7.74-2.27a91.83,91.83,0,0,1-10.4-3.13,29.25,29.25,0,0,1-7.9-4.26,17.21,17.21,0,0,1-5-6.32,22,22,0,0,1-1.78-9.4v-.21a21.93,21.93,0,0,1,1.93-9.35,21.26,21.26,0,0,1,5.41-7.18,24.55,24.55,0,0,1,8.33-4.64,33.52,33.52,0,0,1,10.68-1.62,45.35,45.35,0,0,1,15.28,2.48A44.22,44.22,0,0,1,270,48.55a1.69,1.69,0,0,1,.37,2.33l-6.76,9.81a1.72,1.72,0,0,1-2.35.45,53.34,53.34,0,0,0-8.54-4.53,25.42,25.42,0,0,0-9.72-2q-4.86,0-7.29,1.89a5.73,5.73,0,0,0-2.43,4.69v.22a6.92,6.92,0,0,0,.7,3.19A6.39,6.39,0,0,0,236.49,67a24.2,24.2,0,0,0,5,2c2.12.65,4.81,1.4,8.06,2.27a77.7,77.7,0,0,1,10.24,3.4,28.79,28.79,0,0,1,7.58,4.53,17.39,17.39,0,0,1,4.65,6.21A21.07,21.07,0,0,1,273.63,94v.21A23.34,23.34,0,0,1,271.59,104.24Z" transform="translate(-39.64 -7.75)"/><path class="cls-1" d="M313.16,116.66a25.88,25.88,0,0,1-7.24.92,26.87,26.87,0,0,1-6.85-.81,12.17,12.17,0,0,1-5.29-2.86,13.74,13.74,0,0,1-3.46-5.35,23.92,23.92,0,0,1-1.24-8.37V73.94a1.18,1.18,0,0,0-1.19-1.18h-4.54a1.18,1.18,0,0,1-1.18-1.18V59.9a1.18,1.18,0,0,1,1.18-1.18h4.54a1.18,1.18,0,0,0,1.19-1.18V45.11a1.18,1.18,0,0,1,1.18-1.19h14.05a1.18,1.18,0,0,1,1.18,1.19V57.54a1.18,1.18,0,0,0,1.19,1.18h11.24a1.18,1.18,0,0,1,1.18,1.18V71.58a1.18,1.18,0,0,1-1.18,1.18H306.68a1.18,1.18,0,0,0-1.19,1.18V97.49q0,5.63,5.3,5.62a16.6,16.6,0,0,0,6.45-1.27,1.18,1.18,0,0,1,1.64,1.08v10.61a1.17,1.17,0,0,1-.6,1A25.42,25.42,0,0,1,313.16,116.66Z" transform="translate(-39.64 -7.75)"/><path class="cls-1" d="M365.11,114.69h0a1.91,1.91,0,0,0-3.05-1.54,23.49,23.49,0,0,1-4.19,2.54,23.85,23.85,0,0,1-10.26,2,25.56,25.56,0,0,1-7.72-1.14,18.09,18.09,0,0,1-6.32-3.4,16.18,16.18,0,0,1-4.26-5.56,17.45,17.45,0,0,1-1.57-7.61v-.22a18.21,18.21,0,0,1,1.73-8.21,15.75,15.75,0,0,1,4.8-5.72,21.56,21.56,0,0,1,7.35-3.4,36.53,36.53,0,0,1,9.45-1.14,40.61,40.61,0,0,1,7.72.65,48,48,0,0,1,6.43,1.73v-1q0-5.19-3.14-7.89c-2.08-1.8-5.18-2.7-9.28-2.7a38.56,38.56,0,0,0-8.37.81,53.36,53.36,0,0,0-5.8,1.67,1.92,1.92,0,0,1-2.43-1.22l-2.94-9A1.93,1.93,0,0,1,334.35,62a64.64,64.64,0,0,1,8.29-2.66,52.09,52.09,0,0,1,12.53-1.3q13.5,0,19.66,6.59T381,83v31.67a1.91,1.91,0,0,1-1.91,1.92H367A1.92,1.92,0,0,1,365.11,114.69Zm.32-20.12a1.92,1.92,0,0,0-1.27-1.81,26.58,26.58,0,0,0-3.53-1.05,26.3,26.3,0,0,0-5.67-.59c-3.53,0-6.3.69-8.32,2a6.73,6.73,0,0,0-3,5.94v.22a6,6,0,0,0,2.48,5.18,10.61,10.61,0,0,0,6.48,1.84q5.84,0,9.34-2.81a9,9,0,0,0,3.51-7.34Z" transform="translate(-39.64 -7.75)"/><path class="cls-1" d="M421.92,116.66a25.88,25.88,0,0,1-7.24.92,27,27,0,0,1-6.86-.81,12.17,12.17,0,0,1-5.29-2.86,13.74,13.74,0,0,1-3.46-5.35,24.15,24.15,0,0,1-1.24-8.37V73.61a.85.85,0,0,0-.85-.85h-5.21a.85.85,0,0,1-.85-.85V59.57a.85.85,0,0,1,.85-.85H397a.85.85,0,0,0,.85-.85V44.78a.86.86,0,0,1,.86-.86h14.7a.86.86,0,0,1,.86.86V57.87a.85.85,0,0,0,.85.85H427a.86.86,0,0,1,.86.85V71.91a.86.86,0,0,1-.86.85H415.1a.85.85,0,0,0-.85.85V97.49q0,5.63,5.29,5.62a16.65,16.65,0,0,0,6.91-1.47.85.85,0,0,1,1.19.78v11.31a.86.86,0,0,1-.44.75A25.44,25.44,0,0,1,421.92,116.66Z" transform="translate(-39.64 -7.75)"/><path class="cls-1" d="M587.86,58.63h-13a1,1,0,0,0-.95.95v56.48a1,1,0,0,0,.95,1h13a.94.94,0,0,0,.95-1V59.58a1,1,0,0,0-.95-.95Z" transform="translate(-39.64 -7.75)"/><path class="cls-1" d="M583,33a9.29,9.29,0,1,0,7.57,7.58A9.3,9.3,0,0,0,583,33Z" transform="translate(-39.64 -7.75)"/><path class="cls-1" d="M513.34,107.37a15.46,15.46,0,0,1-4.7,5.78,21.16,21.16,0,0,1-7.08,3.4,32,32,0,0,1-8.69,1.14,40.53,40.53,0,0,1-23.63-7.84,1.62,1.62,0,0,1-.39-2.18l5.3-8.14a1.61,1.61,0,0,1,2.26-.44,37.22,37.22,0,0,0,8.09,4.23,25.36,25.36,0,0,0,8.8,1.73,9.1,9.1,0,0,0,5.24-1.19,3.65,3.65,0,0,0,1.67-3.13v-.21a3.1,3.1,0,0,0-1-2.27,8.22,8.22,0,0,0-2.64-1.68q-1.68-.69-3.84-1.35c-1.44-.43-2.95-.9-4.53-1.4a62.42,62.42,0,0,1-6.11-2.11,21.5,21.5,0,0,1-5.56-3.24,15.75,15.75,0,0,1-4.05-4.91A14.94,14.94,0,0,1,471,76.43v-.21a17,17,0,0,1,6.21-13.61A19.2,19.2,0,0,1,483.85,59a27.86,27.86,0,0,1,8.26-1.18,37,37,0,0,1,11.18,1.78,41.43,41.43,0,0,1,9.13,4.1,1.6,1.6,0,0,1,.56,2.15l-4.75,8.58a1.61,1.61,0,0,1-2.2.63A49.55,49.55,0,0,0,499,72a22.11,22.11,0,0,0-7.24-1.46,7.5,7.5,0,0,0-4.54,1.14,3.43,3.43,0,0,0-1.51,2.86v.21a2.84,2.84,0,0,0,1,2.11,11,11,0,0,0,2.6,1.73A33.7,33.7,0,0,0,493,80.1c1.41.51,2.9,1,4.48,1.52,2,.64,4.07,1.42,6.16,2.32a25.62,25.62,0,0,1,5.62,3.29,16.47,16.47,0,0,1,4.1,4.75A13.46,13.46,0,0,1,515,98.79V99A19.37,19.37,0,0,1,513.34,107.37Z" transform="translate(-39.64 -7.75)"/><path class="cls-1" d="M553.57,116.66a25.93,25.93,0,0,1-7.24.92,27,27,0,0,1-6.86-.81,12.17,12.17,0,0,1-5.29-2.86,13.74,13.74,0,0,1-3.46-5.35,23.92,23.92,0,0,1-1.24-8.37V74a1.25,1.25,0,0,0-1.26-1.26h-4.39a1.25,1.25,0,0,1-1.26-1.26V60a1.25,1.25,0,0,1,1.26-1.26h4.39a1.25,1.25,0,0,0,1.26-1.26V45.18a1.26,1.26,0,0,1,1.26-1.26h13.9a1.27,1.27,0,0,1,1.26,1.26V57.46a1.25,1.25,0,0,0,1.25,1.26h11.1A1.26,1.26,0,0,1,559.51,60V71.5a1.26,1.26,0,0,1-1.26,1.26h-11.1A1.25,1.25,0,0,0,545.9,74V97.49q0,5.63,5.29,5.62a16.85,16.85,0,0,0,6.35-1.22,1.26,1.26,0,0,1,1.75,1.15v10.45a1.25,1.25,0,0,1-.65,1.11A25.49,25.49,0,0,1,553.57,116.66Z" transform="translate(-39.64 -7.75)"/><path class="cls-1" d="M455.12,58.63H442.17a1,1,0,0,0-.95.95v56.48a.94.94,0,0,0,.95,1h12.95a1,1,0,0,0,.95-1V59.58a1,1,0,0,0-.95-.95Z" transform="translate(-39.64 -7.75)"/><path class="cls-1" d="M450.29,33a9.29,9.29,0,1,0,7.58,7.58A9.29,9.29,0,0,0,450.29,33Z" transform="translate(-39.64 -7.75)"/><path class="cls-1" d="M645.58,114.93q-5.4,3-14,3a30.36,30.36,0,0,1-12-2.37A29.16,29.16,0,0,1,603.67,99.6,30,30,0,0,1,601.41,88v-.22a30.35,30.35,0,0,1,2.26-11.66,30,30,0,0,1,6.27-9.61A29,29,0,0,1,619.5,60a30.73,30.73,0,0,1,12.25-2.38q8.22,0,13.61,2.59a30.14,30.14,0,0,1,8.35,5.92,1.71,1.71,0,0,1,.07,2.38L646,76.88a1.68,1.68,0,0,1-2.39.09A24.88,24.88,0,0,0,639,73.52a14.51,14.51,0,0,0-7.39-1.73A12.69,12.69,0,0,0,626,73a14,14,0,0,0-4.43,3.4,15.66,15.66,0,0,0-2.92,5,18.1,18.1,0,0,0-1,6.11v.21a18.91,18.91,0,0,0,1,6.27,15.08,15.08,0,0,0,3,5.07,14.05,14.05,0,0,0,4.65,3.4,14.25,14.25,0,0,0,6,1.25,14.8,14.8,0,0,0,7.19-1.68,29.26,29.26,0,0,0,4.94-3.44,1.68,1.68,0,0,1,2.29.1l7.32,7.41a1.71,1.71,0,0,1,0,2.41A36.52,36.52,0,0,1,645.58,114.93Z" transform="translate(-39.64 -7.75)"/><path class="cls-1" d="M695.78,50.61a18.32,18.32,0,0,0-3.88-.37q-5.94,0-5.94,6.26v1.41a.85.85,0,0,0,.25.61,1.05,1.05,0,0,0,.61.25c.48,0,7.82.06,17.85,0l4.62,13.33-22.26,0a.83.83,0,0,0-.69.27.81.81,0,0,0-.17.59v42.13a.86.86,0,0,1-.86.86H670.62a.86.86,0,0,1-.86-.86V73a.86.86,0,0,0-.86-.86h-5.09a.87.87,0,0,1-.86-.86V59.52a.86.86,0,0,1,.86-.86h5.09a.87.87,0,0,0,.86-.86V55q0-9.62,4.59-14.1t13.33-4.48a44.82,44.82,0,0,1,6.65.43,32.75,32.75,0,0,1,4.42,1,.86.86,0,0,1,.6.83V50.45a.86.86,0,0,1-1.13.81C697.39,51,696.58,50.79,695.78,50.61ZM731,117.41a45.12,45.12,0,0,1-3.46,7.51,21.15,21.15,0,0,1-4.05,5,13.77,13.77,0,0,1-5,2.81,22.35,22.35,0,0,1-6.48.86,26.77,26.77,0,0,1-8-1.08,31.56,31.56,0,0,1-5.95-2.55.8.8,0,0,1-.33-1l4.83-10.42a.81.81,0,0,1,1.12-.36,18.07,18.07,0,0,0,2.76,1.19A10.62,10.62,0,0,0,710,120a6.17,6.17,0,0,0,3.4-.81,6.91,6.91,0,0,0,2.15-2.63.85.85,0,0,0,0-.68c-4.46-11.43-10.66-28.23-10.9-28.86v0q-5.45-14.69-10-28.19h15.54a1,1,0,0,1,.51.19,1.13,1.13,0,0,1,.35.53c.15.49,5,15.33,11.74,35.69a.78.78,0,0,0,.75.6c.38,0,.67-.45.77-.61.75-1.18,9.28-26,12.62-35.71a.83.83,0,0,1,.3-.52.76.76,0,0,1,.4-.14l14.9,0a.36.36,0,0,1,.28.21.35.35,0,0,1,0,.34Z" transform="translate(-39.64 -7.75)"/><rect class="cls-2" y="53.04" width="30.34" height="60.58"/><circle class="cls-1" cx="15.17" cy="53.04" r="15.17"/><rect class="cls-3" x="48.67" y="33.82" width="30.34" height="79.8"/><circle class="cls-1" cx="63.84" cy="33.82" r="15.17"/><rect class="cls-4" x="97.34" y="15.17" width="30.34" height="98.45"/><circle class="cls-1" cx="112.51" cy="15.17" r="15.17"/></svg>