<svg id="Capa_1" data-name="Capa 1" xmlns="http://www.w3.org/2000/svg" xmlns:xlink="http://www.w3.org/1999/xlink" viewBox="0 0 654.82 127.4"><defs><style>.cls-1{fill:#1ed760;}.cls-2{fill:url(#Degradado_sin_nombre_252);}.cls-3{fill:url(#Degradado_sin_nombre_252-2);}.cls-4{fill:url(#Degradado_sin_nombre_252-3);}</style><linearGradient id="Degradado_sin_nombre_252" x1="15.17" y1="113.62" x2="15.17" y2="53.04" gradientUnits="userSpaceOnUse"><stop offset="0" stop-color="#fff" stop-opacity="0"/><stop offset="0.03" stop-color="#e7fbee" stop-opacity="0.11"/><stop offset="0.08" stop-color="#b8f2cd" stop-opacity="0.32"/><stop offset="0.14" stop-color="#8febb0" stop-opacity="0.5"/><stop offset="0.21" stop-color="#6ce597" stop-opacity="0.65"/><stop offset="0.28" stop-color="#4fe083" stop-opacity="0.78"/><stop offset="0.35" stop-color="#39dc73" stop-opacity="0.88"/><stop offset="0.43" stop-color="#2ad968" stop-opacity="0.95"/><stop offset="0.53" stop-color="#21d762" stop-opacity="0.99"/><stop offset="0.69" stop-color="#1ed760"/><stop offset="1" stop-color="#23b763"/></linearGradient><linearGradient id="Degradado_sin_nombre_252-2" x1="63.84" y1="113.62" x2="63.84" y2="33.82" xlink:href="#Degradado_sin_nombre_252"/><linearGradient id="Degradado_sin_nombre_252-3" x1="112.51" y1="113.62" x2="112.51" y2="15.17" xlink:href="#Degradado_sin_nombre_252"/></defs><path class="cls-1" d="M290.46,118H277.31a.92.92,0,0,1-.87-.63l-16-46.3a.93.93,0,0,0-1.75,0l-16,46.3a.92.92,0,0,1-.88.63H228.71a.94.94,0,0,1-.87-.63L202.65,43a.93.93,0,0,1,.88-1.22h15.85a.92.92,0,0,1,.88.65l14.61,47.76a.92.92,0,0,0,1.76,0l15.84-48a.92.92,0,0,1,.87-.64h12.92a.92.92,0,0,1,.88.64l15.84,48a.92.92,0,0,0,1.76,0l14.61-47.76a.92.92,0,0,1,.88-.65h15.42a.92.92,0,0,1,.87,1.22l-25.18,74.29A.94.94,0,0,1,290.46,118Z" transform="translate(-39.64 -7.75)"/><path class="cls-1" d="M361.54,75.62q-8.21,0-12.91,5T343.94,96v20.46a.93.93,0,0,1-.93.93H328.45a.93.93,0,0,1-.93-.93v-56a.92.92,0,0,1,.93-.93H343a.93.93,0,0,1,.93.93v6.8a.92.92,0,0,0,1.73.45,22.45,22.45,0,0,1,5.07-6q4-3.34,10.75-3.27a.93.93,0,0,1,.91.94V75.62Z" transform="translate(-39.64 -7.75)"/><path class="cls-1" d="M406.57,116.36v-2.67a1.06,1.06,0,0,0-1.78-.77,23,23,0,0,1-5.45,3.58,23.85,23.85,0,0,1-10.26,2,25.51,25.51,0,0,1-7.72-1.14A18,18,0,0,1,375,114a16.33,16.33,0,0,1-4.27-5.56,17.59,17.59,0,0,1-1.56-7.61v-.22a18.08,18.08,0,0,1,1.73-8.21,15.75,15.75,0,0,1,4.8-5.72,21.71,21.71,0,0,1,7.34-3.41,37.1,37.1,0,0,1,9.45-1.13,40.65,40.65,0,0,1,7.73.65,48.21,48.21,0,0,1,6.42,1.73v-1q0-5.19-3.13-7.89c-2.09-1.8-5.18-2.7-9.29-2.7a38.56,38.56,0,0,0-8.37.81,55.63,55.63,0,0,0-6.58,1.94,1.06,1.06,0,0,1-1.37-.66l-3.46-10.55a1.07,1.07,0,0,1,.6-1.32,64.91,64.91,0,0,1,9-3,52,52,0,0,1,12.53-1.3q13.5,0,19.65,6.59t6.16,18.36v32.53a1.06,1.06,0,0,1-1.06,1.06H407.64A1.07,1.07,0,0,1,406.57,116.36Zm.33-20a3.34,3.34,0,0,0-2.24-3.18c-.82-.26-1.67-.5-2.57-.7a26.17,26.17,0,0,0-5.67-.59q-5.3,0-8.31,2a6.74,6.74,0,0,0-3,5.94v.22a6.05,6.05,0,0,0,2.49,5.18,10.57,10.57,0,0,0,6.48,1.84q5.83,0,9.34-2.81A9,9,0,0,0,406.9,97Z" transform="translate(-39.64 -7.75)"/><path class="cls-1" d="M495.19,101.38a29.28,29.28,0,0,1-5.83,9.39,23.81,23.81,0,0,1-8.37,5.78,25.94,25.94,0,0,1-9.94,2,20.77,20.77,0,0,1-10.85-2.57,30,30,0,0,1-5.06-3.79,1.27,1.27,0,0,0-2.13.93v20.36a1.26,1.26,0,0,1-1.26,1.27H437.87a1.27,1.27,0,0,1-1.27-1.27V60.8a1.27,1.27,0,0,1,1.27-1.27h13.88A1.26,1.26,0,0,1,453,60.8v3.52a1.27,1.27,0,0,0,2.18.88,26.13,26.13,0,0,1,5.11-4.13,20.22,20.22,0,0,1,10.75-2.62,25.86,25.86,0,0,1,9.83,1.94,24.45,24.45,0,0,1,8.42,5.78,28.87,28.87,0,0,1,5.89,9.4,34.54,34.54,0,0,1,2.21,12.8v.21A34.54,34.54,0,0,1,495.19,101.38Zm-14.2-13a18.29,18.29,0,0,0-1.14-6.58,15.43,15.43,0,0,0-3.08-5.11,13.45,13.45,0,0,0-4.48-3.26A13.2,13.2,0,0,0,457,76.68a16.21,16.21,0,0,0-3,5.11,18.51,18.51,0,0,0-1.13,6.58v.21a18.55,18.55,0,0,0,1.13,6.58,16.33,16.33,0,0,0,3,5.11,13.39,13.39,0,0,0,15.33,3.26,13.59,13.59,0,0,0,4.48-3.26,15.61,15.61,0,0,0,3.08-5.06A18.15,18.15,0,0,0,481,88.58Z" transform="translate(-39.64 -7.75)"/><path class="cls-1" d="M568.09,101.38a29.12,29.12,0,0,1-5.84,9.39,23.68,23.68,0,0,1-8.36,5.78,25.94,25.94,0,0,1-9.94,2,20.77,20.77,0,0,1-10.85-2.57,30.79,30.79,0,0,1-5.16-3.88,1.21,1.21,0,0,0-2,.89v20.55a1.21,1.21,0,0,1-1.21,1.21h-14a1.21,1.21,0,0,1-1.21-1.21V60.74a1.21,1.21,0,0,1,1.21-1.21h14a1.21,1.21,0,0,1,1.21,1.21v3.72a1.21,1.21,0,0,0,2.08.84,25.67,25.67,0,0,1,5.21-4.23A20.22,20.22,0,0,1,544,58.45a25.86,25.86,0,0,1,9.83,1.94,24.54,24.54,0,0,1,8.42,5.78,28.87,28.87,0,0,1,5.89,9.4,34.54,34.54,0,0,1,2.21,12.8v.21A34.54,34.54,0,0,1,568.09,101.38Zm-14.2-13a18.29,18.29,0,0,0-1.14-6.58,15.6,15.6,0,0,0-3.08-5.11,13.45,13.45,0,0,0-4.48-3.26,13.51,13.51,0,0,0-10.91,0,12.84,12.84,0,0,0-4.42,3.26,16,16,0,0,0-3,5.11,18.29,18.29,0,0,0-1.13,6.58v.21a18.33,18.33,0,0,0,1.13,6.58,16.14,16.14,0,0,0,3,5.11,13,13,0,0,0,4.42,3.26,13.62,13.62,0,0,0,10.91,0,13.59,13.59,0,0,0,4.48-3.26,15.78,15.78,0,0,0,3.08-5.06,18.15,18.15,0,0,0,1.14-6.63Z" transform="translate(-39.64 -7.75)"/><path class="cls-1" d="M593.27,59.17H580.32a1,1,0,0,0-1,.95V116.6a1,1,0,0,0,1,1h12.95a1,1,0,0,0,1-1V60.12a1,1,0,0,0-1-.95Z" transform="translate(-39.64 -7.75)"/><path class="cls-1" d="M588.44,33.58A9.29,9.29,0,1,0,596,41.15,9.29,9.29,0,0,0,588.44,33.58Z" transform="translate(-39.64 -7.75)"/><path class="cls-1" d="M637.39,52.16a18.39,18.39,0,0,0-3.89-.38q-5.94,0-5.94,6.26v1.41a.89.89,0,0,0,.25.61,1.05,1.05,0,0,0,.61.25c.48,0,7.82.06,17.85,0l4.62,13.33-22.25,0a.86.86,0,0,0-.7.27.78.78,0,0,0-.16.59v42.13a.87.87,0,0,1-.86.86h-14.7a.86.86,0,0,1-.86-.86V74.56a.86.86,0,0,0-.86-.86h-5.09a.86.86,0,0,1-.86-.86V61.06a.86.86,0,0,1,.86-.86h5.09a.86.86,0,0,0,.86-.86V56.53q0-9.62,4.59-14.09T629.29,38a44.67,44.67,0,0,1,6.64.43,31,31,0,0,1,4.42,1,.86.86,0,0,1,.6.83V52a.86.86,0,0,1-1.12.81C639,52.55,638.19,52.33,637.39,52.16ZM672.64,119a44.7,44.7,0,0,1-3.46,7.51,20.72,20.72,0,0,1-4,5,13.63,13.63,0,0,1-5,2.81,21.92,21.92,0,0,1-6.48.86,26.82,26.82,0,0,1-8-1.08,31.84,31.84,0,0,1-5.94-2.55.79.79,0,0,1-.33-1l4.83-10.42a.81.81,0,0,1,1.12-.36,18.51,18.51,0,0,0,2.76,1.19,10.93,10.93,0,0,0,3.51.65,6.17,6.17,0,0,0,3.4-.81,7,7,0,0,0,2.15-2.64.85.85,0,0,0,0-.68c-4.47-11.42-10.66-28.21-10.9-28.85v0q-5.44-14.69-10-28.19h15.54a1,1,0,0,1,.51.19,1.13,1.13,0,0,1,.35.53l11.74,35.69a.78.78,0,0,0,.75.6c.38,0,.67-.45.77-.61.75-1.19,9.28-26,12.62-35.72a.81.81,0,0,1,.3-.51.8.8,0,0,1,.39-.15l14.91,0a.37.37,0,0,1,.28.2.46.46,0,0,1,0,.35Q683.55,89.93,672.64,119Z" transform="translate(-39.64 -7.75)"/><rect class="cls-2" y="53.04" width="30.34" height="60.58"/><circle class="cls-1" cx="15.17" cy="53.04" r="15.17"/><rect class="cls-3" x="48.67" y="33.82" width="30.34" height="79.8"/><circle class="cls-1" cx="63.84" cy="33.82" r="15.17"/><rect class="cls-4" x="97.34" y="15.17" width="30.34" height="98.45"/><circle class="cls-1" cx="112.51" cy="15.17" r="15.17"/></svg>